<svg xmlns="http://www.w3.org/2000/svg" viewBox="0 0 32 32" fill="white">
  <path d="M19.11 17.44c-.28-.14-1.64-.81-1.89-.9-.25-.09-.43-.14-.61.14-.18.28-.7.9-.86 1.08-.16.18-.32.2-.6.07-.28-.14-1.17-.43-2.23-1.38-.82-.73-1.37-1.63-1.53-1.9-.16-.28-.02-.43.12-.57.13-.13.28-.32.43-.48.14-.16.18-.28.28-.46.09-.18.05-.35-.02-.49-.07-.14-.61-1.47-.84-2.01-.22-.53-.44-.46-.61-.46-.16 0-.35-.02-.53-.02-.18 0-.49.07-.75.35-.26.28-.98.96-.98 2.35 0 1.38 1.01 2.72 1.15 2.9.14.18 1.98 3.03 4.8 4.25.67.29 1.19.46 1.6.59.67.21 1.28.18 1.76.11.54-.08 1.64-.67 1.87-1.32.23-.65.23-1.21.16-1.32-.07-.11-.25-.18-.53-.32z"/>
  <path d="M16 3C8.83 3 3 8.83 3 16c0 2.53.75 4.99 2.17 7.1L3 29l6.08-2.13A12.93 12.93 0 0 0 16 29c7.17 0 13-5.83 13-13S23.17 3 16 3zm0 23.6c-2.19 0-4.32-.59-6.16-1.71l-.44-.26-3.61 1.27 1.21-3.52-.29-.45A10.58 10.58 0 1 1 16 26.6z"/>
</svg>
